<mxfile host="Electron" agent="Mozilla/5.0 (Windows NT 10.0; Win64; x64) AppleWebKit/537.36 (KHTML, like Gecko) draw.io/26.1.1 Chrome/132.0.6834.210 Electron/34.3.3 Safari/537.36" version="26.1.1">
  <diagram name="Page-1" id="e7e014a7-5840-1c2e-5031-d8a46d1fe8dd">
    <mxGraphModel dx="1036" dy="606" grid="1" gridSize="10" guides="1" tooltips="1" connect="1" arrows="1" fold="1" page="1" pageScale="1" pageWidth="1169" pageHeight="826" background="none" math="0" shadow="0">
      <root>
        <mxCell id="0" />
        <mxCell id="1" parent="0" />
        <mxCell id="4YK71g34pKvKFQ2VFF6N-1" value="" style="endArrow=none;html=1;rounded=0;" edge="1" parent="1">
          <mxGeometry width="50" height="50" relative="1" as="geometry">
            <mxPoint x="1100" y="360" as="sourcePoint" />
            <mxPoint x="1100" y="80" as="targetPoint" />
          </mxGeometry>
        </mxCell>
        <mxCell id="4YK71g34pKvKFQ2VFF6N-2" value="" style="endArrow=none;html=1;rounded=0;" edge="1" parent="1">
          <mxGeometry width="50" height="50" relative="1" as="geometry">
            <mxPoint x="1280" y="360" as="sourcePoint" />
            <mxPoint x="1280" y="80" as="targetPoint" />
          </mxGeometry>
        </mxCell>
        <mxCell id="4YK71g34pKvKFQ2VFF6N-3" value="" style="endArrow=none;html=1;rounded=0;" edge="1" parent="1">
          <mxGeometry width="50" height="50" relative="1" as="geometry">
            <mxPoint x="1460" y="360" as="sourcePoint" />
            <mxPoint x="1460" y="80" as="targetPoint" />
          </mxGeometry>
        </mxCell>
        <mxCell id="4YK71g34pKvKFQ2VFF6N-4" value="&lt;b&gt;User&lt;/b&gt;" style="text;html=1;align=center;verticalAlign=middle;resizable=0;points=[];autosize=1;strokeColor=none;fillColor=none;" vertex="1" parent="1">
          <mxGeometry x="1155" y="58" width="50" height="30" as="geometry" />
        </mxCell>
        <mxCell id="4YK71g34pKvKFQ2VFF6N-5" value="&lt;b&gt;System&lt;/b&gt;" style="text;html=1;align=center;verticalAlign=middle;resizable=0;points=[];autosize=1;strokeColor=none;fillColor=none;" vertex="1" parent="1">
          <mxGeometry x="1345" y="58" width="70" height="30" as="geometry" />
        </mxCell>
        <mxCell id="4YK71g34pKvKFQ2VFF6N-6" value="UC03 - View product details" style="text;html=1;align=center;verticalAlign=middle;resizable=0;points=[];autosize=1;strokeColor=none;fillColor=none;fontStyle=1" vertex="1" parent="1">
          <mxGeometry x="1190" y="28" width="170" height="30" as="geometry" />
        </mxCell>
        <mxCell id="4YK71g34pKvKFQ2VFF6N-7" value="" style="ellipse;html=1;shape=startState;fillColor=#000000;strokeColor=#ff0000;" vertex="1" parent="1">
          <mxGeometry x="1165" y="88" width="30" height="30" as="geometry" />
        </mxCell>
        <mxCell id="4YK71g34pKvKFQ2VFF6N-8" value="" style="edgeStyle=orthogonalEdgeStyle;html=1;verticalAlign=bottom;endArrow=open;endSize=8;strokeColor=#ff0000;rounded=0;" edge="1" source="4YK71g34pKvKFQ2VFF6N-7" parent="1" target="4YK71g34pKvKFQ2VFF6N-9">
          <mxGeometry relative="1" as="geometry">
            <mxPoint x="1180" y="178" as="targetPoint" />
          </mxGeometry>
        </mxCell>
        <mxCell id="4YK71g34pKvKFQ2VFF6N-9" value="&lt;span style=&quot;font-size: 10px;&quot;&gt;Selects a specific product on the page&amp;nbsp;&lt;/span&gt;" style="rounded=1;whiteSpace=wrap;html=1;arcSize=40;fontColor=#000000;fillColor=#ffffc0;strokeColor=#ff0000;" vertex="1" parent="1">
          <mxGeometry x="1120" y="142" width="120" height="40" as="geometry" />
        </mxCell>
        <mxCell id="4YK71g34pKvKFQ2VFF6N-10" value="" style="edgeStyle=orthogonalEdgeStyle;html=1;verticalAlign=bottom;endArrow=open;endSize=8;strokeColor=#ff0000;rounded=0;" edge="1" source="4YK71g34pKvKFQ2VFF6N-9" parent="1" target="4YK71g34pKvKFQ2VFF6N-11">
          <mxGeometry relative="1" as="geometry">
            <mxPoint x="1180" y="242" as="targetPoint" />
          </mxGeometry>
        </mxCell>
        <mxCell id="4YK71g34pKvKFQ2VFF6N-11" value="&lt;font style=&quot;font-size: 10px;&quot;&gt;Redirects&lt;/font&gt;&lt;span style=&quot;font-size: 10px;&quot;&gt;&amp;nbsp;the user to the selected product details page&lt;/span&gt;" style="rounded=1;whiteSpace=wrap;html=1;arcSize=40;fontColor=#000000;fillColor=#ffffc0;strokeColor=#ff0000;" vertex="1" parent="1">
          <mxGeometry x="1320" y="142" width="120" height="40" as="geometry" />
        </mxCell>
        <mxCell id="4YK71g34pKvKFQ2VFF6N-12" value="" style="edgeStyle=orthogonalEdgeStyle;html=1;verticalAlign=bottom;endArrow=open;endSize=8;strokeColor=#ff0000;rounded=0;" edge="1" source="4YK71g34pKvKFQ2VFF6N-11" parent="1" target="4YK71g34pKvKFQ2VFF6N-13">
          <mxGeometry relative="1" as="geometry">
            <mxPoint x="1380" y="242" as="targetPoint" />
          </mxGeometry>
        </mxCell>
        <mxCell id="4YK71g34pKvKFQ2VFF6N-13" value="&lt;span style=&quot;font-size: 10px;&quot;&gt;Retrieve the details of the selected product&lt;/span&gt;" style="rounded=1;whiteSpace=wrap;html=1;arcSize=40;fontColor=#000000;fillColor=#ffffc0;strokeColor=#ff0000;" vertex="1" parent="1">
          <mxGeometry x="1320" y="200" width="120" height="40" as="geometry" />
        </mxCell>
        <mxCell id="4YK71g34pKvKFQ2VFF6N-14" value="" style="edgeStyle=orthogonalEdgeStyle;html=1;verticalAlign=bottom;endArrow=open;endSize=8;strokeColor=#ff0000;rounded=0;" edge="1" source="4YK71g34pKvKFQ2VFF6N-13" parent="1" target="4YK71g34pKvKFQ2VFF6N-15">
          <mxGeometry relative="1" as="geometry">
            <mxPoint x="1380" y="300" as="targetPoint" />
          </mxGeometry>
        </mxCell>
        <mxCell id="4YK71g34pKvKFQ2VFF6N-15" value="&lt;span style=&quot;font-size: 10px;&quot;&gt;Display the product details&lt;/span&gt;" style="rounded=1;whiteSpace=wrap;html=1;arcSize=40;fontColor=#000000;fillColor=#ffffc0;strokeColor=#ff0000;" vertex="1" parent="1">
          <mxGeometry x="1320" y="260" width="120" height="40" as="geometry" />
        </mxCell>
        <mxCell id="4YK71g34pKvKFQ2VFF6N-16" value="" style="edgeStyle=orthogonalEdgeStyle;html=1;verticalAlign=bottom;endArrow=open;endSize=8;strokeColor=#ff0000;rounded=0;" edge="1" source="4YK71g34pKvKFQ2VFF6N-15" parent="1" target="4YK71g34pKvKFQ2VFF6N-17">
          <mxGeometry relative="1" as="geometry">
            <mxPoint x="1380" y="340" as="targetPoint" />
          </mxGeometry>
        </mxCell>
        <mxCell id="4YK71g34pKvKFQ2VFF6N-17" value="" style="ellipse;html=1;shape=endState;fillColor=#000000;strokeColor=#ff0000;" vertex="1" parent="1">
          <mxGeometry x="1365" y="320" width="30" height="30" as="geometry" />
        </mxCell>
      </root>
    </mxGraphModel>
  </diagram>
</mxfile>
